            <svg width="24" height="24" viewBox="0 0 24 24" fill="none" xmlns="http://www.w3.org/2000/svg">
                <rect x="10.3333" y="6.99997" width="9.42814" height="4.71407" rx="1" transform="rotate(45 10.3333 6.99997)" stroke="#6B7280" stroke-width="2"/>
                    <path d="M20.5834 15.9168V15.9168C21.5498 16.8832 21.5498 18.4502 20.5834 19.4166L19.4167 20.5833C18.4503 21.5497 16.8833 21.5497 15.9169 20.5833V20.5833" stroke="#6B7280" stroke-width="2"/>
                    <path d="M8.0834 3.41669V3.41669C7.11688 2.45016 5.54982 2.45016 4.58329 3.41669L3.41659 4.58339C2.45006 5.54992 2.45006 7.11697 3.41659 8.0835V8.0835" stroke="#6B7280" stroke-width="2"/>
                    <path d="M4.70712 9.04047L9.04047 4.70711L7.62626 3.2929L3.2929 7.62626L4.70712 9.04047ZM11.6263 4.29291L4.29291 11.6263L5.70712 13.0405L13.0405 5.70712L11.6263 4.29291ZM4.29291 11.6263C4.40729 11.5119 4.59274 11.5119 4.70712 11.6263L3.2929 13.0405C3.95957 13.7072 5.04045 13.7072 5.70712 13.0405L4.29291 11.6263ZM11.6263 4.70712C11.5119 4.59273 11.5119 4.40729 11.6263 4.29291L13.0405 5.70712C13.7072 5.04045 13.7072 3.95957 13.0405 3.2929L11.6263 4.70712ZM9.04047 4.70711C9.75452 3.99306 10.9122 3.99306 11.6263 4.70712L13.0405 3.2929C11.5454 1.7978 9.12136 1.7978 7.62626 3.2929L9.04047 4.70711ZM3.2929 7.62626C1.7978 9.12136 1.7978 11.5454 3.2929 13.0405L4.70712 11.6263C3.99307 10.9122 3.99307 9.75452 4.70712 9.04047L3.2929 7.62626Z" fill="#6B7280"/>
                    <path d="M12.3739 19.7071L19.7072 12.3737L18.293 10.9595L10.9596 18.2929L12.3739 19.7071ZM19.293 14.9595L14.9597 19.2929L16.3739 20.7071L20.7072 16.3738L19.293 14.9595ZM14.9597 19.2929C14.2456 20.0069 13.0879 20.0069 12.3739 19.2929L10.9596 20.7071C12.4547 22.2022 14.8788 22.2022 16.3739 20.7071L14.9597 19.2929ZM19.293 12.3737C20.0071 13.0878 20.0071 14.2455 19.293 14.9595L20.7072 16.3738C22.2023 14.8787 22.2023 12.4546 20.7072 10.9595L19.293 12.3737ZM19.7072 12.3737C19.5928 12.4881 19.4074 12.4881 19.293 12.3737L20.7072 10.9595C20.0406 10.2929 18.9597 10.2929 18.293 10.9595L19.7072 12.3737ZM10.9596 18.2929C10.293 18.9596 10.293 20.0404 10.9596 20.7071L12.3739 19.2929C12.4882 19.4073 12.4882 19.5927 12.3739 19.7071L10.9596 18.2929Z" fill="#6B7280"/>
            </svg>